<svg xmlns="http://www.w3.org/2000/svg" xmlns:xlink="http://www.w3.org/1999/xlink" viewBox="0 0 203 62.14"><defs><style>.cls-1{fill:#9abf15;}.cls-2,.cls-5{fill:#467302;}.cls-3{clip-path:url(#clip-path);}.cls-4{fill:#d4d93d;}.cls-5{font-size:36px;font-family:NexaLight, Nexa Light;}.cls-6{letter-spacing:0.02em;}.cls-7{letter-spacing:-0.07em;}</style><clipPath id="clip-path"><path class="cls-1" d="M56.45,55.74s-10-13.13-5.39-25.34S68.58,10.78,72.81,8.47,91.88,0,92.84,0c0,0,4.68,27.09-.94,39.31S73.18,61.91,56.45,55.74Z"/></clipPath></defs><g id="Capa_2" data-name="Capa 2"><g id="Logo"><path class="cls-2" d="M52.34,61.69h0a1.14,1.14,0,0,0,1.48.28c2.19-1.33,1.4-2.63,4.24-5.92A3,3,0,0,1,57,55.41c-2.54,2.82-4.08,4.76-4.68,5.55A.59.59,0,0,0,52.34,61.69Z"/><path class="cls-1" d="M56.45,55.74s-10-13.13-5.39-25.34S68.58,10.78,72.81,8.47,91.88,0,92.84,0c0,0,4.68,27.09-.94,39.31S73.18,61.91,56.45,55.74Z"/><g class="cls-3"><path class="cls-4" d="M92.84,0S59.06,55.55,57.32,56.26s22.87,3.67,22.87,3.67l22.59-21.27L96,0H92.84"/></g><text class="cls-5" transform="translate(0 40.02)"><tspan class="cls-6">C</tspan><tspan x="24.98" y="0">osta Rica</tspan><tspan class="cls-7" x="180.46" y="0">’</tspan><tspan x="185.04" y="0">s</tspan></text><path class="cls-4" d="M102.46,58.27a1.31,1.31,0,0,1-.44,0,1,1,0,0,1-.43-.2,2.3,2.3,0,0,1-.33-.37.62.62,0,0,1,0-.43c0-.2.09-.51.19-.93s.22-.76.36-1.33.29-1.13.45-1.68a8,8,0,0,1,.25-1c.11-.34.23-.65.34-.94s.21-.51.27-.67c.16-.56.32-1,.47-1.47s.33-.9.55-1.45.49-1.27.81-2.19c.43-1.2.77-2.11,1-2.73s.39-1.09.5-1.38a6.81,6.81,0,0,0,.23-.67.45.45,0,0,1,.13-.36.51.51,0,0,1,.35-.12.78.78,0,0,1,.67.41,2.14,2.14,0,0,1,.31,1,1.81,1.81,0,0,1-.18,1c-.32.72-.65,1.57-1,2.56s-.71,2-1,2.89-.66,1.75-1,2.41a1.75,1.75,0,0,1-.09.42,3.25,3.25,0,0,1-.21.53l-.33.66a2.11,2.11,0,0,1-.09.45q-.09.33-.24.81c-.08.23-.17.54-.28.92a8,8,0,0,0-.23,1,5.34,5.34,0,0,1,.63-.81q.48-.54.9-.93l1.07-.92a11.18,11.18,0,0,1,1-.75l.92-.63a.12.12,0,0,1,.11-.13h.22c.08,0,.13,0,.14,0a.5.5,0,0,0,0-.15c0-.1.11-.19.34-.27a5.32,5.32,0,0,1,1.57-.27,1,1,0,0,1,.57.15,2.69,2.69,0,0,1,.54.65,2.56,2.56,0,0,1,.46,1.15,2.9,2.9,0,0,1-.13,1.39,4.44,4.44,0,0,1-.08.68,5.25,5.25,0,0,0-.07.91l-.18.95h.48a2.13,2.13,0,0,1,.65.15l.24.23a.36.36,0,0,0,.24.1c.24,0,.33.1.27.28a1,1,0,0,1-.45.53,2.4,2.4,0,0,1-1.3.48,1.47,1.47,0,0,1-1.06-.48,2.26,2.26,0,0,1-.6-1.14A3.75,3.75,0,0,1,110,54.9c.08-.88.13-1.52.14-1.93s-.1-.61-.32-.61a2.71,2.71,0,0,0-1,.4,14.57,14.57,0,0,0-1.67,1.09,21.19,21.19,0,0,0-1.83,1.53,9.87,9.87,0,0,0-1.49,1.73c-.24.3-.47.56-.69.79A1,1,0,0,1,102.46,58.27Z"/><path class="cls-4" d="M115.45,58.81a1,1,0,0,0-.3-.37.37.37,0,0,1-.18-.26,2.26,2.26,0,0,0,0-.25.43.43,0,0,0-.14-.25c-.1-.12-.09-.4,0-.82a12,12,0,0,1,.6-1.59q.42-.95,1-2a4,4,0,0,0,.47-.63,3.2,3.2,0,0,1,.36-.51.33.33,0,0,1,.09-.22.28.28,0,0,1,.21-.11v-.18a1,1,0,0,1,.28-.5c.19-.24.43-.51.71-.8s.56-.56.86-.83a5.33,5.33,0,0,1,.75-.59,3.16,3.16,0,0,1,1.3-.5,1.44,1.44,0,0,1,1.15.3l.3.29c.14.14.3.3.49.47L124,50l1.11,1-.54,1.49a4,4,0,0,0-.19,2.09,5.06,5.06,0,0,0,.58,1.55,1.57,1.57,0,0,0,.61.63,2.22,2.22,0,0,0,.88.36,1,1,0,0,1,.45.18.55.55,0,0,1,.21.48.82.82,0,0,1-.12.47.62.62,0,0,1-.42.24,2.61,2.61,0,0,1-1.84-.47,5.41,5.41,0,0,1-1.56-2,3.87,3.87,0,0,1-.32-.67,4.81,4.81,0,0,1-.22-.64l-.45.55a6.3,6.3,0,0,1-.51.58A14,14,0,0,1,118,58.74,2.51,2.51,0,0,1,115.45,58.81Zm1.72-1.69a4.61,4.61,0,0,0,1.39-.82c.67-.57,1.36-1.21,2-1.91a15.45,15.45,0,0,0,1.66-1.94l.66-1.08a2.36,2.36,0,0,0-.65-.94,1,1,0,0,0-.58-.25c-.26,0-.64.24-1.15.72a13,13,0,0,0-1.63,1.91,24.19,24.19,0,0,0-1.64,2.63c-.2.39-.45,1-.75,1.7C116.52,57.28,116.74,57.27,117.17,57.12Z"/><path class="cls-4" d="M137.55,59.53a.87.87,0,0,1-.61-.33,2.92,2.92,0,0,1-.54-.82,2.25,2.25,0,0,1-.22-.94,10.91,10.91,0,0,1,.22-1.67c.15-.82.34-1.65.56-2.48q.24-.78.15-.9t-.81.33a6.46,6.46,0,0,0-.75.43,3.48,3.48,0,0,0-.57.49l-.44.39a7.79,7.79,0,0,1-.63.51q-.39.3-1,.84l-1.18,1.07-.88.84a.6.6,0,0,1-.18.21.52.52,0,0,1-.27.1.74.74,0,0,1-.32,0,1.35,1.35,0,0,1-.62-.39,1,1,0,0,1-.28-.69,4,4,0,0,1,.24-1c.16-.49.37-1.08.64-1.78s.58-1.43.94-2.21a1.42,1.42,0,0,0,.15-.37c0-.15.08-.31.11-.49a3.08,3.08,0,0,0,0-.51,1.18,1.18,0,0,1,.05-.31,2.13,2.13,0,0,1,.11-.33.84.84,0,0,1,.14-.23c.08-.16.22-.2.42-.13a1,1,0,0,1,.51.43,1.46,1.46,0,0,1,.46,1,4.49,4.49,0,0,1-.32,1.55,2.87,2.87,0,0,0-.19.4c-.05.13-.09.24-.13.33l-.12.29a1.45,1.45,0,0,0,.53-.27q.42-.27,1-.6c.3-.22.56-.42.79-.61s.42-.34.58-.45a.84.84,0,0,1,.3-.16.71.71,0,0,0,.3-.09,1.14,1.14,0,0,0,.3-.21.52.52,0,0,1,.27-.15.6.6,0,0,0,.36-.15.75.75,0,0,1,.62-.11,1.79,1.79,0,0,1,.72.32.67.67,0,0,1,.33.53.41.41,0,0,0,.15.27c.16,0,.26.25.31.75a3.26,3.26,0,0,1-.16,1.43,4.41,4.41,0,0,1-.17,1.08c-.11.42-.2.82-.28,1.19a9,9,0,0,0-.33,1.32,3.13,3.13,0,0,0,0,1,1.66,1.66,0,0,0,.21.63.47.47,0,0,1,0,.46A.48.48,0,0,1,137.55,59.53Z"/><path class="cls-4" d="M148.4,59.8a.81.81,0,0,1-.47.07,3.45,3.45,0,0,1-.64-.43,1.87,1.87,0,0,1-.25-.64,7.6,7.6,0,0,1,0-1c0-.3.13-.73.26-1.29s.28-1.14.46-1.76.34-1.18.49-1.67a9.78,9.78,0,0,1,.35-1c.13-.48.16-.77.08-.88s-.31-.18-.71-.22a2.53,2.53,0,0,0-2.15.77,13.34,13.34,0,0,0-1.91,2.42A5.36,5.36,0,0,0,143,56a3,3,0,0,0,0,1.09.41.41,0,0,0,.42.25,1.85,1.85,0,0,0,.73-.13,7,7,0,0,0,.7-.3c.14-.08.32-.16.52-.25l.62-.26a.28.28,0,0,1,.25.11.72.72,0,0,1,.08.4.32.32,0,0,0,.08.21.8.8,0,0,0,.21.15c.08.08,0,.26-.34.54a8.18,8.18,0,0,1-1.42,1,6.69,6.69,0,0,1-1.45.21,1.72,1.72,0,0,1-1.06-.39,2,2,0,0,1-.94-1.66,7.21,7.21,0,0,1,.46-2.82,9.09,9.09,0,0,1,1.26-2.19c.46-.57.94-1.12,1.46-1.66a2.89,2.89,0,0,1,.56-.37,5.15,5.15,0,0,1,1.09-.47,6.41,6.41,0,0,1,1.4-.3,1.64,1.64,0,0,1,1.13.27c.36.08.59.07.69,0a5.09,5.09,0,0,0,.51-1.06c.4-1,.79-2,1.16-3s.79-2.07,1.23-3.13a3.89,3.89,0,0,0,.37-.88.9.9,0,0,1,.2-.43h.56a1,1,0,0,1,.42.21,1.1,1.1,0,0,1,.42.57,6.27,6.27,0,0,1-.24,1.18,15.87,15.87,0,0,1-.78,2.16c-.31.74-.63,1.48-.94,2.23s-.6,1.54-.88,2.37c-.22.62-.42,1.12-.59,1.5a4.43,4.43,0,0,0-.36,1,8.76,8.76,0,0,1-.44,1.39c-.17.41-.28.69-.34.85l-.63,1.84c-.16.47-.28.85-.36,1.16a5,5,0,0,0-.13.93,5.53,5.53,0,0,0,.08,1.09,1,1,0,0,1,0,.24A.53.53,0,0,1,148.4,59.8Z"/><path class="cls-4" d="M156.79,59.38a2.07,2.07,0,0,1-.73-.15,1.24,1.24,0,0,1-.32-.48,1.29,1.29,0,0,1-.28-.42.51.51,0,0,1,0-.27h.27a.16.16,0,0,0,.15-.1c0-.06,0-.1.11-.12a.41.41,0,0,1,.22,0,3.28,3.28,0,0,0,1.45-.38,11.83,11.83,0,0,0,1.91-1.13,21.52,21.52,0,0,0,2-1.63c.52-.68.89-1.21,1.13-1.6a2.81,2.81,0,0,0,.42-1,1,1,0,0,0-.09-.65c-.08-.16-.37-.22-.86-.19a3.58,3.58,0,0,0-1.68.64,16.59,16.59,0,0,0-2.06,1.5A10.11,10.11,0,0,0,157,55a4.06,4.06,0,0,0-.46.72c-.15.27-.33.61-.53,1,0,.08-.11.18-.34.3a1.31,1.31,0,0,1-.58.18,2.33,2.33,0,0,1-.32-.22.78.78,0,0,1-.25-.44,2.55,2.55,0,0,1-.3-.24.45.45,0,0,1-.12-.21,1.36,1.36,0,0,1,.09-.56q.12-.39.33-1.23c.12-.52.25-1,.4-1.61s.3-1,.43-1.44a2,2,0,0,1,.3-.65,2.32,2.32,0,0,0,.24-.9,2.22,2.22,0,0,1,.2-.63,1,1,0,0,0,.13-.38,2.17,2.17,0,0,0,.36-.72c.16-.42.36-1,.6-1.64a2.76,2.76,0,0,1,.21-.59c.14-.32.3-.71.5-1.16s.41-.92.62-1.41.38-.92.52-1.29a5.71,5.71,0,0,0,.55-1,1.05,1.05,0,0,1,.4-.52,1,1,0,0,1,.38,0,1.62,1.62,0,0,1,.45.16,1,1,0,0,1,.37.36,1,1,0,0,1,.12.27.86.86,0,0,1-.09.43c-.08.21-.23.56-.46,1.05l-1,2.1c-.56,1.2-1,2.26-1.38,3.2s-.66,1.76-.89,2.48-.46,1.33-.66,1.85l-.15.66.75-.72c.29-.22.62-.49,1-.81l1-.83a3.85,3.85,0,0,1,.64-.38c.27-.13.53-.24.79-.34a3.36,3.36,0,0,1,.57-.18l.45-.09a5.26,5.26,0,0,1,.86-.06,1.73,1.73,0,0,1,1.06.3,3.22,3.22,0,0,1,.8,1,2.64,2.64,0,0,1,.26,1.42,3.35,3.35,0,0,1-.47,1.47,1.87,1.87,0,0,0-.3.32.57.57,0,0,0-.15.31,2.69,2.69,0,0,1-.54.85c-.34.43-.68.83-1,1.21A8.38,8.38,0,0,1,161,57.54a18.06,18.06,0,0,1-1.54,1,7.55,7.55,0,0,1-1.3.61l-.68.11A6.21,6.21,0,0,0,156.79,59.38Z"/><path class="cls-4" d="M169.6,58.75a2.44,2.44,0,0,1-.79.08,1.55,1.55,0,0,1-.49-.35,2.68,2.68,0,0,1-.79-.59,2.25,2.25,0,0,1-.45-.77,1.61,1.61,0,0,1-.11-.67,9.27,9.27,0,0,1,.51-2.24,16.26,16.26,0,0,1,1-2.3A9.94,9.94,0,0,1,169.8,50a3.55,3.55,0,0,1,1.36-1,2.4,2.4,0,0,1,1.13-.17.92.92,0,0,1,.78.56q.45.87-.21,1.11a.4.4,0,0,0-.21.07.23.23,0,0,0-.12.2,1.78,1.78,0,0,0,.66,0,7.08,7.08,0,0,0,1.09-.18,2,2,0,0,0,.73-.28.69.69,0,0,1,.27-.09l.45.06c.33.1.5.22.5.36a.33.33,0,0,0,.09.22.28.28,0,0,0,.21.11c.14,0,.13.11,0,.27a10.13,10.13,0,0,1-.85.65,8.24,8.24,0,0,0-.7.47c-.09.07-.11.21-.05.43a1.94,1.94,0,0,1,0,1.31,5.15,5.15,0,0,1-.75,1.53,8,8,0,0,1-1.3,1.44,8.41,8.41,0,0,1-1.61,1.14A4.51,4.51,0,0,1,169.6,58.75Zm-.5-1.31a1.36,1.36,0,0,0,.41-.14l.48-.22c.08-.08.19-.17.32-.28a.83.83,0,0,1,.31-.2.62.62,0,0,0,.3-.1,2.76,2.76,0,0,0,.51-.45c.21-.23.5-.57.86-1a7.73,7.73,0,0,0,.93-1.21,1.24,1.24,0,0,0,.18-1,.2.2,0,0,0-.17-.15,1.31,1.31,0,0,1-.34-.15,1,1,0,0,1-.55-.17,5,5,0,0,1-.59-.43l-.47-.6-.51.51a6.47,6.47,0,0,0-1,1.42,14.18,14.18,0,0,0-.88,1.91,6.84,6.84,0,0,0-.42,1.54.7.7,0,0,0,.15.6A.87.87,0,0,0,169.1,57.44Z"/><path class="cls-4" d="M180,59.71a1.32,1.32,0,0,1-.63-.08,5.9,5.9,0,0,1-.6-.31,3.84,3.84,0,0,1-1-1,1.77,1.77,0,0,1-.28-1,1.66,1.66,0,0,0,0-.69c-.12-.1-.16-.16-.12-.19a.3.3,0,0,0,.09-.17q.24-.06.06-.33a2.45,2.45,0,0,1,.1-1.09,8.73,8.73,0,0,1,.53-1.59c.1-.22.24-.51.43-.87s.4-.72.64-1.09a6.9,6.9,0,0,1,.66-.88,7.33,7.33,0,0,1,1.18-1.12,4.87,4.87,0,0,1,1.18-.61,4,4,0,0,1,.86-.27,1.18,1.18,0,0,1,.75.36,2.5,2.5,0,0,1,1.09.58,2.53,2.53,0,0,1,.58,1.15,6.2,6.2,0,0,1,.17,2,8.39,8.39,0,0,1-1,3,7.56,7.56,0,0,1-1.12,1.76,13.71,13.71,0,0,1-1.33,1.25,7,7,0,0,1-1.05.75A4.14,4.14,0,0,1,180,59.71Zm2.39-3.56a11.62,11.62,0,0,0,.94-1.65,8.33,8.33,0,0,0,.55-1.93,3.49,3.49,0,0,0,0-.82,5,5,0,0,0-.13-.91c-.07-.28-.17-.43-.29-.45a1.32,1.32,0,0,0-.86,0,2.51,2.51,0,0,0-1,.74,7.32,7.32,0,0,0-.91,1.34,13.06,13.06,0,0,0-.73,1.64c-.22.6-.43,1.24-.63,1.91a2.33,2.33,0,0,0,0,1.74c.22.4.61.49,1.15.28A5,5,0,0,0,182.42,56.15Z"/><path class="cls-4" d="M187.76,59.23a2.23,2.23,0,0,1-.44-.39.68.68,0,0,1-.12-.51c0-.29.1-.61.18-.94a8.3,8.3,0,0,1,.29-1c.06-.36.14-.71.23-1.07a3.12,3.12,0,0,1,.46-1q.39-1.11.81-2.19a18,18,0,0,0,.71-2.29c.3-.72.58-1.35.83-1.91s.55-1.27.91-2.15a10.66,10.66,0,0,0,.52-1.54,4.46,4.46,0,0,1,.7-1.51,3.58,3.58,0,0,0,.32-.46,3.28,3.28,0,0,1,.22-.37c0-.12.17-.16.4-.12a.78.78,0,0,1,.5.26c.1,0,.21.11.35.39a1,1,0,0,1,.15.66,1.4,1.4,0,0,1-.24.72,1.18,1.18,0,0,0-.23.34c-.08.15-.2.34-.36.58l-.24.78a6,6,0,0,1-.27.72c-.1.22-.21.43-.33.65a2.82,2.82,0,0,0-.24.54c-.18.46-.37.9-.58,1.33a11,11,0,0,0-.55,1.36c-.16.46-.33.94-.5,1.45a7.06,7.06,0,0,1-.67,1.45,2.38,2.38,0,0,0-.33.8q-.12.51-.24,1c-.14.36-.26.69-.37,1a2.29,2.29,0,0,0-.16.57,10.77,10.77,0,0,0-.33,1.3,3.61,3.61,0,0,1-.39,1.12.74.74,0,0,1-.25.6C188.35,59.48,188.1,59.43,187.76,59.23Zm2.15-4.81a1.17,1.17,0,0,1,.14-1,1.9,1.9,0,0,1,.7-.73.83.83,0,0,1,.25-.29.29.29,0,0,0,.17-.19,1.22,1.22,0,0,1,.31-.33l.47-.39c.31-.19.68-.44,1.09-.73s.8-.58,1.18-.88l1-.78a6.27,6.27,0,0,0,.49-.41.45.45,0,0,1,.25-.17.7.7,0,0,1,.44.08.72.72,0,0,1,.47.28,1.52,1.52,0,0,1,.12.73.73.73,0,0,1-.25.7,5.48,5.48,0,0,1-1,.83c-.16.1-.37.24-.64.44a7.74,7.74,0,0,0-.7.57c-.14.08-.35.22-.62.4a7.44,7.44,0,0,0-.7.56,4.18,4.18,0,0,0-.63.52,2.83,2.83,0,0,1-.77.55,4.22,4.22,0,0,1-1.26,1Q190.06,55.17,189.91,54.42Zm5,5.29a2,2,0,0,1-.71-.2c-.16-.09-.46-.29-.9-.61-.24-.24-.57-.61-1-1.1s-.83-1-1.25-1.6-.77-1.05-1.05-1.45l1.23-1.64a6.76,6.76,0,0,1,.63.89,3,3,0,0,0,.38.57c.46.68.83,1.22,1.09,1.64a9.82,9.82,0,0,0,.74,1,5.06,5.06,0,0,0,.7.69,7.66,7.66,0,0,0,.94.62.76.76,0,0,1,.18.18.49.49,0,0,1,.06.36.74.74,0,0,1-.26.4A4.08,4.08,0,0,1,194.9,59.71Z"/></g></g></svg>